<svg width="24" height="28" viewBox="0 0 24 28" fill="none" xmlns="http://www.w3.org/2000/svg">
<path d="M0.25 10.769V9.30025C0.249948 8.65776 0.390402 8.02303 0.66152 7.44054C0.932637 6.85806 1.32786 6.34191 1.81948 5.92827C2.31111 5.51463 2.88725 5.21351 3.50752 5.04601C4.12779 4.87851 4.77719 4.84869 5.41021 4.95862C5.82222 3.52923 6.68783 2.27255 7.87649 1.37812C9.06515 0.483689 10.5124 0 12 0C13.4876 0 14.9348 0.483689 16.1235 1.37812C17.3122 2.27255 18.1778 3.52923 18.5898 4.95862C19.2228 4.84869 19.8722 4.87851 20.4925 5.04601C21.1127 5.21351 21.6889 5.51463 22.1805 5.92827C22.6721 6.34191 23.0674 6.85806 23.3385 7.44054C23.6096 8.02303 23.7501 8.65776 23.75 9.30025V10.769C23.7504 13.7161 22.6434 16.5557 20.6483 18.7249C18.6533 20.894 15.916 22.2342 12.9792 22.4798V25.4565H11.0208V22.4798C8.084 22.2342 5.34669 20.894 3.35166 18.7249C1.35663 16.5557 0.249573 13.7161 0.25 10.769ZM9.03508 9.78787H14.9649C14.8779 9.0119 14.9989 8.22675 15.3155 7.51298C15.6321 6.79922 16.1329 6.18256 16.7666 5.72629C16.5129 4.65266 15.9043 3.6961 15.0392 3.01155C14.1741 2.32701 13.1032 1.95457 12 1.95457C10.8968 1.95457 9.82594 2.32701 8.96083 3.01155C8.09573 3.6961 7.48706 4.65266 7.23342 5.72629C7.86738 6.18273 8.36842 6.79971 8.68505 7.51385C9.00168 8.22799 9.1225 9.01355 9.03508 9.78983V9.78787ZM6.80454 9.78787C6.87716 9.4655 6.87633 9.13092 6.80211 8.80892C6.72789 8.48691 6.58219 8.18572 6.37579 7.92766C6.16939 7.6696 5.90759 7.46127 5.60976 7.31811C5.31194 7.17494 4.98572 7.10061 4.65527 7.10061C4.32482 7.10061 3.99861 7.17494 3.70078 7.31811C3.40295 7.46127 3.14115 7.6696 2.93475 7.92766C2.72835 8.18572 2.58265 8.48691 2.50843 8.80892C2.43421 9.13092 2.43338 9.4655 2.506 9.78787H6.80454ZM17.1955 9.78787H21.492C21.5647 9.4655 21.5638 9.13092 21.4896 8.80892C21.4154 8.48691 21.2697 8.18572 21.0633 7.92766C20.8569 7.6696 20.5951 7.46127 20.2973 7.31811C19.9994 7.17494 19.6732 7.10061 19.3428 7.10061C19.0123 7.10061 18.6861 7.17494 18.3883 7.31811C18.0905 7.46127 17.8286 7.6696 17.6222 7.92766C17.4159 8.18572 17.2701 8.48691 17.1959 8.80892C17.1217 9.13092 17.1209 9.4655 17.1935 9.78787H17.1955ZM12 20.5607C14.4277 20.5606 16.7689 19.6588 18.5691 18.03C20.3694 16.4013 21.5004 14.1618 21.7427 11.7462H2.25729C2.49958 14.1618 3.63059 16.4013 5.43087 18.03C7.23114 19.6588 9.57228 20.5606 12 20.5607ZM8.08333 25.4585H15.9167C16.1764 25.4585 16.4254 25.5616 16.609 25.7452C16.7927 25.9289 16.8958 26.1779 16.8958 26.4376C16.8958 26.6973 16.7927 26.9464 16.609 27.13C16.4254 27.3136 16.1764 27.4168 15.9167 27.4168H8.08333C7.82364 27.4168 7.57459 27.3136 7.39096 27.13C7.20733 26.9464 7.10417 26.6973 7.10417 26.4376C7.10417 26.1779 7.20733 25.9289 7.39096 25.7452C7.57459 25.5616 7.82364 25.4585 8.08333 25.4585Z" fill="white"/>
</svg>
