<svg width="24" height="21" viewBox="0 0 24 21" fill="none" xmlns="http://www.w3.org/2000/svg">
<path d="M11.1431 3.5315V1.75H8.57229C8.34502 1.75 8.12706 1.65781 7.96635 1.49372C7.80565 1.32962 7.71536 1.10706 7.71536 0.875C7.71536 0.642936 7.80565 0.420376 7.96635 0.256282C8.12706 0.0921874 8.34502 0 8.57229 0H15.4277C15.655 0 15.8729 0.0921874 16.0336 0.256282C16.1944 0.420376 16.2846 0.642936 16.2846 0.875C16.2846 1.10706 16.1944 1.32962 16.0336 1.49372C15.8729 1.65781 15.655 1.75 15.4277 1.75H12.8569V3.5315C14.501 3.65129 16.1033 4.11572 17.5638 4.89582C19.0243 5.67592 20.3117 6.75495 21.3457 8.0656C22.3797 9.37626 23.1381 10.8904 23.5736 12.5136C24.0091 14.1368 24.1124 15.8342 23.877 17.5H0.122989C-0.112418 15.8342 -0.00914107 14.1368 0.426378 12.5136C0.861896 10.8904 1.62031 9.37626 2.65432 8.0656C3.68832 6.75495 4.97573 5.67592 6.43623 4.89582C7.89673 4.11572 9.499 3.65129 11.1431 3.5315ZM1.71687 15.75H22.2831C22.2831 14.3711 22.0171 13.0057 21.5004 11.7318C20.9836 10.4579 20.2261 9.30039 19.2713 8.32538C18.3164 7.35036 17.1828 6.57694 15.9352 6.04926C14.6876 5.52159 13.3504 5.25 12 5.25C10.6496 5.25 9.31242 5.52159 8.06482 6.04926C6.81721 6.57694 5.68361 7.35036 4.72873 8.32538C3.77385 9.30039 3.01641 10.4579 2.49963 11.7318C1.98285 13.0057 1.71687 14.3711 1.71687 15.75ZM0.859946 19.25H23.1401C23.3673 19.25 23.5853 19.3422 23.746 19.5063C23.9067 19.6704 23.997 19.8929 23.997 20.125C23.997 20.3571 23.9067 20.5796 23.746 20.7437C23.5853 20.9078 23.3673 21 23.1401 21H0.859946C0.632675 21 0.414712 20.9078 0.254007 20.7437C0.0933022 20.5796 0.00301904 20.3571 0.00301904 20.125C0.00301904 19.8929 0.0933022 19.6704 0.254007 19.5063C0.414712 19.3422 0.632675 19.25 0.859946 19.25Z" fill="white"/>
</svg>
