<svg width="21" height="30" viewBox="0 0 21 30" fill="none" xmlns="http://www.w3.org/2000/svg">
<path d="M17.4178 9.64558L20.4916 6.57177L19.0429 5.12299L15.6688 8.497C15.4767 8.6891 15.3687 8.94967 15.3686 9.22139V13.3198H8.12061L9.29173 29.7134H18.3717L19.5429 13.3198H17.4178V9.64558ZM16.465 27.6642H11.1985L10.3214 15.369H17.342L16.465 27.6642Z" fill="white"/>
<path d="M9.22141 0H4.09841C3.82666 0 3.56605 0.107949 3.3739 0.300099C3.18175 0.492249 3.0738 0.75286 3.0738 1.0246V8.57591C1.98055 9.19682 0 10.8075 0 14.3444V28.6888C0 28.9606 0.107949 29.2212 0.300099 29.4133C0.492249 29.6055 0.75286 29.7134 1.0246 29.7134H6.14761V27.6642H2.0492V14.3444C2.0492 10.4981 5.12301 9.95912 5.12301 9.95912V2.0492H8.19681V9.22141H10.246V1.0246C10.246 0.75286 10.1381 0.492249 9.94591 0.300099C9.75376 0.107949 9.49315 0 9.22141 0Z" fill="white"/>
</svg>
