<svg width="25" height="25" viewBox="0 0 25 25" fill="none" xmlns="http://www.w3.org/2000/svg">
<path d="M24.9986 18.6379V23.5487C24.9988 23.9003 24.8656 24.2389 24.6258 24.4961C24.3861 24.7534 24.0578 24.9101 23.707 24.9347C23.1006 24.9773 22.6052 24.9986 22.221 24.9986C9.94806 24.9986 0 15.0506 0 2.77762C0 2.39431 0.0212951 1.89897 0.0638853 1.2916C0.0884984 0.940842 0.245238 0.612481 0.502477 0.372769C0.759716 0.133058 1.0983 -0.000158926 1.44992 3.56341e-07H6.36076C6.53302 -0.000174066 6.69921 0.0636896 6.82702 0.179185C6.95484 0.294681 7.03516 0.453562 7.05239 0.624966C7.08387 0.943467 7.11349 1.19901 7.14127 1.39159C7.41725 3.31777 7.98287 5.19115 8.81896 6.94823C8.95089 7.22599 8.86479 7.55791 8.6148 7.73568L5.61774 9.87723C7.45058 14.1468 10.8532 17.5494 15.1228 19.3823L17.2615 16.3908C17.3486 16.2681 17.4762 16.1801 17.6217 16.1422C17.7673 16.1044 17.9216 16.1191 18.0573 16.1838C19.8142 17.0183 21.6871 17.5825 23.6126 17.8573C23.8052 17.8851 24.0598 17.9147 24.3764 17.9462C24.5476 17.9638 24.7061 18.0442 24.8213 18.172C24.9365 18.2998 24.9988 18.4658 24.9986 18.6379Z" fill="black"/>
</svg>
